<svg width="26" height="26" viewBox="0 0 26 26" fill="none" xmlns="http://www.w3.org/2000/svg">
<path d="M7.55469 6.4382C7.55468 7.12856 7.69066 7.81216 7.95484 8.44998C8.21903 9.08779 8.60626 9.66732 9.09442 10.1555C9.58258 10.6436 10.1621 11.0309 10.7999 11.2951C11.4377 11.5593 12.1213 11.6952 12.8117 11.6952C13.5021 11.6952 14.1857 11.5593 14.8235 11.2951C15.4613 11.0309 16.0408 10.6436 16.529 10.1555C17.0171 9.66732 17.4044 9.08779 17.6685 8.44998C17.9327 7.81216 18.0687 7.12856 18.0687 6.4382C18.0687 5.74783 17.9327 5.06423 17.6685 4.42642C17.4044 3.7886 17.0171 3.20907 16.529 2.72091C16.0408 2.23274 15.4613 1.84551 14.8235 1.58132C14.1857 1.31713 13.5021 1.18115 12.8117 1.18115C12.1213 1.18115 11.4377 1.31713 10.7999 1.58132C10.1621 1.84551 9.58258 2.23274 9.09442 2.72091C8.60626 3.20907 8.21903 3.7886 7.95484 4.42642C7.69066 5.06423 7.55468 5.74783 7.55469 6.4382Z" fill="#E6A23C"/>
<path d="M21.7479 16.4374C16.6666 13.1987 16.7189 13.1987 13.0612 13.1987C9.46513 13.1987 9.45588 13.1987 3.97085 16.5668C2.75674 17.3741 2.04492 21.3554 2.04492 22.4124C2.04492 25.1764 6.93215 24.4153 12.9595 24.4153C18.9869 24.4153 23.8741 25.1764 23.8741 22.4124C23.8772 21.2969 23.0853 17.2663 21.7479 16.4374Z" fill="#E6A23C"/>
</svg>
